<?xml version="1.0" encoding="UTF-8" standalone="no"?>
<svg
   viewBox="0 0 283.88553 244.47076"
   version="1.1"
   id="svg67"
   width="283.88553"
   height="244.47076"
   xmlns="http://www.w3.org/2000/svg"
   xmlns:svg="http://www.w3.org/2000/svg">
  <defs
     id="defs43">
    <linearGradient
       id="a"
       x1="14.09"
       y1="265.31"
       x2="297.92999"
       y2="265.31"
       gradientUnits="userSpaceOnUse"
       gradientTransform="translate(-14.05723,-69.150002)">
      <stop
         offset="0.44"
         stop-color="#3ca396"
         id="stop18" />
      <stop
         offset="0.53"
         stop-color="#044c7d"
         id="stop20" />
    </linearGradient>
    <linearGradient
       id="b"
       x1="30.51"
       y1="262.67999"
       x2="281.48999"
       y2="171.34"
       gradientUnits="userSpaceOnUse"
       gradientTransform="translate(-14.05723,-69.150002)">
      <stop
         offset="0.02"
         stop-color="#92f9da"
         id="stop23" />
      <stop
         offset="0.22"
         stop-color="#6fcec3"
         id="stop25" />
      <stop
         offset="0.48"
         stop-color="#459ca7"
         id="stop27" />
      <stop
         offset="0.7"
         stop-color="#277794"
         id="stop29" />
      <stop
         offset="0.88"
         stop-color="#156087"
         id="stop31" />
      <stop
         offset="1"
         stop-color="#0e5883"
         id="stop33" />
    </linearGradient>
    <linearGradient
       id="c"
       x1="156.50999"
       y1="38.099998"
       x2="156.50999"
       y2="318.07999"
       gradientUnits="userSpaceOnUse"
       gradientTransform="translate(-14.05723,-69.150002)">
      <stop
         offset="0.44"
         stop-color="#67c4be"
         id="stop36" />
      <stop
         offset="0.81"
         stop-color="#87ecd3"
         id="stop38" />
      <stop
         offset="0.93"
         stop-color="#92f9da"
         id="stop40" />
    </linearGradient>
  </defs>
  <path
     d="m 0.03277034,147.85 v 14.65 c 0.14,2 1.65999996,4.1 4.50999996,5.75 l 127.4499997,73.6 c 5.5,3.17 13.81,3.51 18.56,0.77 l 130.12,-75.12 c 2.28,-1.32 3.32,-3.12 3.19,-5 v -14.65 z"
     fill="url(#a)"
     id="path45"
     style="fill:url(#a)" />
  <path
     d="m 280.67277,152.85 -130.12,75.1 c -4.75,2.75 -13.06,2.41 -18.56,-0.76 L 4.5427703,153.6 c -5.48999996,-3.17 -6.09,-8 -1.33,-10.71 L 133.33277,67.769998 c 4.75,-2.75 13.06,-2.41 18.56,0.76 l 127.45,73.590002 c 5.49,3.17 6.09,7.97 1.33,10.73 z"
     fill="url(#b)"
     id="path47"
     style="fill:url(#b)" />
  <rect
     x="57.622772"
     y="0"
     width="169.66"
     height="169.66"
     rx="22.889999"
     fill="url(#c)"
     id="rect49"
     style="fill:url(#c)" />
  <path
     d="m 88.12277,48.899998 -7.75,0.88 v -7.4 l 8.87,-3.17 h 9.92 v 39.28 h -11 z"
     fill="#ffffff"
     id="path51" />
  <path
     d="m 124.00277,79.019998 c -12.86,0 -17,-9 -17,-20.08 0,-10.74 4.17,-20.26 17,-20.26 12.83,0 16.79,9.63 16.79,20.2 0,10.97 -4.4,20.14 -16.79,20.14 z m 0,-32.06 c -4.93,0 -5.82,6.28 -5.82,12 0,6.75 1.06,11.74 5.82,11.74 4.52,0 5.69,-5.34 5.69,-11.8 0,-5.83 -0.75,-11.94 -5.69,-11.94 z"
     fill="#ffffff"
     id="path53" />
  <path
     d="m 151.94277,48.899998 -7.75,0.88 v -7.4 l 8.86,-3.17 h 9.93 v 39.28 h -11.04 z"
     fill="#ffffff"
     id="path55" />
  <path
     d="m 187.85277,79.019998 c -12.86,0 -17,-9 -17,-20.08 0,-10.74 4.17,-20.26 17,-20.26 12.83,0 16.8,9.63 16.8,20.2 0,10.97 -4.41,20.14 -16.8,20.14 z m 0,-32.06 c -4.93,0 -5.81,6.28 -5.81,12 0,6.75 1.06,11.74 5.81,11.74 4.52,0 5.7,-5.34 5.7,-11.8 0,-5.83 -0.76,-11.94 -5.7,-11.94 z"
     fill="#ffffff"
     id="path57" />
  <path
     d="m 97.23277,130.98 c -12.86,0 -17,-9 -17,-20.08 0,-10.75 4.17,-20.260002 17,-20.260002 12.83,0 16.79,9.630002 16.79,20.200002 0,11.01 -4.41,20.14 -16.79,20.14 z m 0,-32.060002 c -4.94,0 -5.82,6.280002 -5.82,12.000002 0,6.75 1.06,11.74 5.82,11.74 4.52,0 5.69,-5.34 5.69,-11.8 0.02,-5.83 -0.76,-11.940002 -5.69,-11.940002 z"
     fill="#ffffff"
     id="path59" />
  <path
     d="m 125.94277,100.85 -7.75,0.88 v -7.400002 l 8.87,-3.17 h 9.88 V 130.45 h -11 z"
     fill="#ffffff"
     id="path61" />
  <path
     d="m 161.53277,130.98 c -12.86,0 -17,-9 -17,-20.08 0,-10.75 4.17,-20.260002 17,-20.260002 12.83,0 16.79,9.630002 16.79,20.200002 0,11.01 -4.38,20.14 -16.79,20.14 z m 0,-32.060002 c -4.93,0 -5.81,6.280002 -5.81,12.000002 0,6.75 1.05,11.74 5.81,11.74 4.52,0 5.69,-5.34 5.69,-11.8 0,-5.83 -0.76,-11.940002 -5.69,-11.940002 z"
     fill="#ffffff"
     id="path63" />
  <path
     d="m 191.94277,100.85 -7.75,0.88 v -7.400002 l 8.87,-3.17 h 9.88 V 130.45 h -11 z"
     fill="#ffffff"
     id="path65" />
</svg>
