<svg xmlns="http://www.w3.org/2000/svg" xmlns:xlink="http://www.w3.org/1999/xlink" viewBox="0 0 312 345"><defs><linearGradient id="a" x1="14.09" y1="265.31" x2="297.93" y2="265.31" gradientUnits="userSpaceOnUse"><stop offset="0.44" stop-color="#3ca396"/><stop offset="0.53" stop-color="#044c7d"/></linearGradient><linearGradient id="b" x1="30.51" y1="262.68" x2="281.49" y2="171.34" gradientUnits="userSpaceOnUse"><stop offset="0.02" stop-color="#92f9da"/><stop offset="0.22" stop-color="#6fcec3"/><stop offset="0.48" stop-color="#459ca7"/><stop offset="0.7" stop-color="#277794"/><stop offset="0.88" stop-color="#156087"/><stop offset="1" stop-color="#0e5883"/></linearGradient><linearGradient id="c" x1="156.51" y1="38.1" x2="156.51" y2="318.08" gradientUnits="userSpaceOnUse"><stop offset="0.44" stop-color="#67c4be"/><stop offset="0.81" stop-color="#87ecd3"/><stop offset="0.93" stop-color="#92f9da"/></linearGradient></defs><path d="M14.09,217v14.65c.14,2,1.66,4.1,4.51,5.75L146.05,311c5.5,3.17,13.81,3.51,18.56.77l130.12-75.12c2.28-1.32,3.32-3.12,3.19-5V217Z" fill="url(#a)"/><path d="M294.73,222,164.61,297.1c-4.75,2.75-13.06,2.41-18.56-.76L18.6,222.75c-5.49-3.17-6.09-8-1.33-10.71l130.12-75.12c4.75-2.75,13.06-2.41,18.56.76L293.4,211.27C298.89,214.44,299.49,219.24,294.73,222Z" fill="url(#b)"/><rect x="71.68" y="69.15" width="169.66" height="169.66" rx="22.89" fill="url(#c)"/><path d="M102.18,118.05l-7.75.88v-7.4l8.87-3.17h9.92v39.28h-11Z" fill="#fff"/><path d="M138.06,148.17c-12.86,0-17-9-17-20.08,0-10.74,4.17-20.26,17-20.26s16.79,9.63,16.79,20.2C154.85,139,150.45,148.17,138.06,148.17Zm0-32.06c-4.93,0-5.82,6.28-5.82,12,0,6.75,1.06,11.74,5.82,11.74,4.52,0,5.69-5.34,5.69-11.8C143.75,122.22,143,116.11,138.06,116.11Z" fill="#fff"/><path d="M166,118.05l-7.75.88v-7.4l8.86-3.17h9.93v39.28H166Z" fill="#fff"/><path d="M201.91,148.17c-12.86,0-17-9-17-20.08,0-10.74,4.17-20.26,17-20.26s16.8,9.63,16.8,20.2C218.71,139,214.3,148.17,201.91,148.17Zm0-32.06c-4.93,0-5.81,6.28-5.81,12,0,6.75,1.06,11.74,5.81,11.74,4.52,0,5.7-5.34,5.7-11.8C207.61,122.22,206.85,116.11,201.91,116.11Z" fill="#fff"/><path d="M111.29,200.13c-12.86,0-17-9-17-20.08,0-10.75,4.17-20.26,17-20.26s16.79,9.63,16.79,20.2C128.08,191,123.67,200.13,111.29,200.13Zm0-32.06c-4.94,0-5.82,6.28-5.82,12,0,6.75,1.06,11.74,5.82,11.74,4.52,0,5.69-5.34,5.69-11.8C117,174.18,116.22,168.07,111.29,168.07Z" fill="#fff"/><path d="M140,170l-7.75.88v-7.4l8.87-3.17H151V199.6H140Z" fill="#fff"/><path d="M175.59,200.13c-12.86,0-17-9-17-20.08,0-10.75,4.17-20.26,17-20.26s16.79,9.63,16.79,20.2C192.38,191,188,200.13,175.59,200.13Zm0-32.06c-4.93,0-5.81,6.28-5.81,12,0,6.75,1.05,11.74,5.81,11.74,4.52,0,5.69-5.34,5.69-11.8C181.28,174.18,180.52,168.07,175.59,168.07Z" fill="#fff"/><path d="M206,170l-7.75.88v-7.4l8.87-3.17H217V199.6H206Z" fill="#fff"/></svg>